<svg version="1.1" id="Capa_1" xmlns="http://www.w3.org/2000/svg" xmlns:xlink="http://www.w3.org/1999/xlink" x="0px" y="0px"
	 viewBox="0 0 434.38 434.38" style="enable-background:new 0 0 434.38 434.38;" xml:space="preserve">
<g>
	<path d="M426.055,10.321c-5.368-5.368-12.506-8.325-20.098-8.325c-7.592,0-14.73,2.957-20.098,8.325l-68.856,68.855
		c-9.668,9.668-10.899,24.626-3.697,35.644l-5.086,5.086c-6.851,6.851-10.764,16.336-10.737,26.024
		c0.019,6.517-2.614,12.897-7.222,17.505l-11.087,11.086c-8.626-4.85-18.434-8.445-29.056-10.4
		c-29.053-5.348-59.742,1.858-80.093,18.805c-15.033,12.518-23.312,29.548-23.312,47.954v0.503H6c-3.313,0-6,2.687-6,6v189
		c0,3.313,2.687,6,6,6h290c3.313,0,6-2.687,6-6V268.222c8.8-10.875,13.889-23.775,13.889-37.341c0-19.131-10.107-36.942-26.503-49.6
		l9.36-9.359c6.851-6.851,10.764-16.336,10.737-26.024c-0.018-6.517,2.615-12.897,7.223-17.505l5.14-5.14
		c4.636,2.951,9.944,4.433,15.256,4.433c7.278,0,14.557-2.771,20.098-8.312l68.855-68.855c5.368-5.369,8.325-12.506,8.325-20.098
		S431.423,15.69,426.055,10.321z M146.712,243.384v66.085c0,1.781,0.792,3.471,2.161,4.611c1.086,0.905,2.448,1.389,3.839,1.389
		c0.361,0,0.725-0.033,1.086-0.099L165,313.308v11.586c0,10.088,8.299,18.295,18.5,18.295s18.5-8.208,18.5-18.295v-18.397l30-5.522
		v23.919c0,10.259,7.907,18.295,18,18.295s18-8.036,18-18.295v-32.362c8.168-3.217,15.581-7.465,22-12.519v74.37H12v-111H146.712z
		 M177,311.099l13-2.393v16.188c0,3.413-2.977,6.295-6.5,6.295s-6.5-2.883-6.5-6.295V311.099z M244,298.765l6.117-1.126
		c1.993-0.367,3.95-0.804,5.883-1.284v28.538c0,3.589-2.58,6.295-6,6.295s-6-2.707-6-6.295V298.765z M12,420.384v-54h278v54H12z
		 M303.889,230.881L303.889,230.881c0,25.877-23.528,48.99-55.944,54.957l-89.232,16.426v-71.383
		c0-18.942,10.327-31.518,18.991-38.732c13.774-11.47,33.144-17.777,53.152-17.777c5.683,0,11.418,0.509,17.089,1.553
		C280.361,181.891,303.889,205.004,303.889,230.881z M417.569,42.032l-68.855,68.855c-3.102,3.102-7.226,4.81-11.613,4.81
		c-2.238,0-4.405-0.45-6.405-1.297l0.006-0.006c2.343-2.343,2.343-6.142,0-8.485c-2.343-2.343-6.143-2.343-8.485,0l-0.083,0.083
		c-2.701-6.039-1.595-13.381,3.354-18.33l68.856-68.855c3.102-3.102,7.226-4.81,11.613-4.81c4.386,0,8.511,1.708,11.612,4.81
		C423.973,25.21,423.973,35.629,417.569,42.032z"/>
	<path d="M49.44,343.195c10.094,0,18.307-8.212,18.307-18.307v-47.469c0-10.094-8.212-18.307-18.307-18.307
		s-18.307,8.212-18.307,18.307v47.469C31.134,334.983,39.346,343.195,49.44,343.195z M43.134,277.419
		c0-3.478,2.829-6.307,6.307-6.307s6.307,2.829,6.307,6.307v47.469c0,3.478-2.829,6.307-6.307,6.307s-6.307-2.829-6.307-6.307
		V277.419z"/>
	<path d="M116.249,343.195c10.095,0,18.307-8.212,18.307-18.307v-47.469c0-10.094-8.212-18.307-18.307-18.307
		c-10.094,0-18.307,8.212-18.307,18.307v47.469C97.942,334.983,106.154,343.195,116.249,343.195z M109.942,277.419
		c0-3.478,2.829-6.307,6.307-6.307s6.307,2.829,6.307,6.307v47.469c0,3.478-2.83,6.307-6.307,6.307s-6.307-2.829-6.307-6.307
		V277.419z"/>
</g>
</svg>
