<svg height="505pt" viewBox="-38 0 505 505.35789" width="505pt" xmlns="http://www.w3.org/2000/svg"><path d="m411.457031 252.027344h-97.917969c-2.347656.011718-4.675781-.464844-6.832031-1.394532l-82.890625-51.414062c-6.886718-3.402344-14.734375-4.328125-22.222656-2.625l-.054688-21.699219c0-3.460937-.074218-7.25-.152343-11.257812-.351563-18.292969-.839844-43.34375 6.453125-57.339844 8.277344-15.871094 25.707031-14.183594 32.808594-12.722656 15.261718 3.132812 27.597656 15.148437 39.523437 26.761719 3.460937 3.363281 6.882813 6.691406 10.335937 9.796874 12.117188 10.898438 23.976563 14.828126 35.167969 11.726563 6.3125-1.621094 11.617188-5.886719 14.558594-11.699219 3.933594-10 3.851563-21.132812-.234375-31.070312-6.203125-16.433594-14.890625-31.816406-25.753906-45.613282-20.511719-27.042968-50.417969-45.40625-83.8125-51.460937-7.136719-1.183594-14.359375-1.78125-21.59375-1.789063h-48.765625c-13.15625-1.234374-26.285157 2.632813-36.671875 10.800782-2.128906 1.917968-4.09375 3.90625-6.027344 5.871094-3.890625 4.710937-8.847656 8.421874-14.464844 10.828124-9.152344 1.648438-18.574218.875-27.335937-2.238281-10.777344-14.492187-29.640625-20.429687-46.777344-14.726562s-28.675781 21.761719-28.617187 39.824219v50.359374c-.015626 19.863282 13.902343 37.011719 33.34375 41.082032 19.441406 4.066406 39.070312-6.0625 47.015624-24.265625 6.472657.296875 12.675782 2.6875 17.667969 6.816406 11.226563 8.363281 18.296875 21.167969 19.394531 35.121094 0 15.457031 0 57.046875.078126 83.9375h-25.234376c-14-.0625-26.554687 8.609375-31.457031 21.71875-4.902343 13.113281-1.117187 27.894531 9.488281 37.035156-7.363281 6.292969-11.605468 15.492187-11.605468 25.179687s4.242187 18.886719 11.605468 25.179688c-7.363281 6.292969-11.605468 15.496094-11.605468 25.179688 0 9.6875 4.242187 18.886718 11.605468 25.179687-10.605468 9.140625-14.390624 23.921875-9.488281 37.035156 4.902344 13.109375 17.457031 21.78125 31.457031 21.71875h13.296876c-.691407 3.65625-1.394532 7.074219-1.996094 9.914063-2.199219 8.242187-.496094 17.039062 4.617187 23.867187 5.246094 6.390625 13.167969 9.976563 21.429688 9.699219l62.785156-.085938c8.261719.285157 16.183594-3.292968 21.4375-9.675781 5.140625-6.757812 6.855469-15.515625 4.648437-23.710937-.726562-3.414063-1.308593-6.832032-1.964843-10.242188.714843-.039062 1.441406-.023437 2.15625-.074218 23.75-2.082032 46.410156-10.898438 65.324219-25.410157l42.15625-31.273437c2.324218-1.15625 4.878906-1.757813 7.472656-1.761719h77.648437c9.269531-.007813 16.777344-7.519531 16.789063-16.785156v-117.507813c-.011719-9.269531-7.519532-16.777344-16.789063-16.789062zm-369.3125-125.898438c-13.898437-.015625-25.164062-11.28125-25.179687-25.183594v-50.359374c0-13.90625 11.273437-25.179688 25.179687-25.179688 13.910157 0 25.183594 11.273438 25.183594 25.179688v50.359374c-.015625 13.902344-11.28125 25.167969-25.183594 25.183594zm66.273438-14.878906c-6.976563-5.625-15.414063-9.136719-24.320313-10.132812l.015625-.171876v-50.359374c-.054687-2.023438-.257812-4.042969-.609375-6.039063 8.28125 1.59375 16.820313 1.261719 24.949219-.976563 8.058594-3.210937 15.21875-8.320312 20.875-14.890624 1.707031-1.734376 3.433594-3.492188 5.34375-5.214844 7.371094-5.234375 16.425781-7.535156 25.402344-6.453125h48.765625c6.3125.011719 12.617187.535156 18.84375 1.566406 29.25 5.367187 55.417968 21.511719 73.339844 45.242187 9.808593 12.453126 17.652343 26.332032 23.257812 41.164063 2.457031 5.535156 2.808594 11.78125.992188 17.558594-.808594 1.617187-2.3125 2.777343-4.085938 3.140625-5.40625 1.503906-11.769531-1.128906-19.453125-8.035156-3.292969-2.960938-6.546875-6.132813-9.84375-9.34375-13.027344-12.679688-27.785156-27.050782-47.863281-31.175782-19.925782-5.5625-41.066406 3.296875-51.070313 21.410156-9.277343 17.792969-8.765625 44.203126-8.351562 65.421876.074219 3.890624.148437 7.574218.148437 10.929687l.070313 27.785156-40.820313 16.324219c-3.417968 1.394531-6.640625 3.234375-9.582031 5.464844-.03125-24.707032-.03125-52.699219-.03125-64.765625-1.117187-19.179688-10.617187-36.902344-25.972656-48.449219zm-32.757813 165.960938c.007813-9.269532 7.519532-16.78125 16.785156-16.789063h25.179688v33.574219h-25.179688c-9.265624-.007813-16.777343-7.519532-16.785156-16.785156zm0 50.359374c.007813-9.269531 7.519532-16.777343 16.785156-16.789062h25.179688v24.785156c.042969 3.007813.625 5.984375 1.714844 8.789063h-26.894532c-9.265624-.007813-16.777343-7.519531-16.785156-16.785157zm0 50.359376c.007813-9.265626 7.519532-16.777344 16.785156-16.785157h58.753907c9.273437 0 16.789062 7.515625 16.789062 16.785157 0 9.273437-7.515625 16.789062-16.789062 16.789062h-58.753907c-9.265624-.011719-16.777343-7.519531-16.785156-16.789062zm0 50.363281c.007813-9.269531 7.519532-16.78125 16.785156-16.789063h58.753907c9.273437 0 16.789062 7.515625 16.789062 16.789063 0 9.269531-7.515625 16.785156-16.789062 16.785156h-58.753907c-9.265624-.007813-16.777343-7.519531-16.785156-16.785156zm125.207032 56.859375c-2.117188 2.304687-5.164063 3.523437-8.289063 3.320312l-62.78125.082032c-3.125.234374-6.183594-1-8.269531-3.335938-1.945313-2.871094-2.457032-6.476562-1.398438-9.777344.820313-3.859375 1.785156-8.578125 2.679688-13.578125h76.855468c.839844 4.53125 1.636719 9.035157 2.621094 13.664063 1.019532 3.253906.496094 6.800781-1.417968 9.625zm210.589843-98.828125h-77.648437c-5.554688.003906-11.023438 1.378906-15.917969 4.011719-.355469.191406-.695313.40625-1.019531.648437l-42.691406 31.671875c-16.351563 12.605469-35.957032 20.289062-56.515626 22.148438-2.558593.183593-5.136718.273437-7.710937.273437h-29.851563c8.265626-13.800781 5.332032-31.554687-6.929687-41.96875 7.722656-6.613281 11.988281-16.40625 11.574219-26.566406-.414063-10.164063-5.460938-19.574219-13.695313-25.542969 13.5-9.644531 21.613281-25.132812 21.863281-41.722656 14.351563 20.207031 38.890626 43.472656 75.792969 43.472656 4.636719 0 8.394531-3.757812 8.394531-8.394531 0-4.632813-3.757812-8.390625-8.394531-8.390625-52.121093 0-75.84375-61.097656-76.078125-61.714844-1.425781-3.796875-5.367187-6.03125-9.359375-5.300781-3.992187.726562-6.890625 4.203125-6.890625 8.261719v25.179687c0 23.902344-10.890625 37.867187-32.378906 41.511719-2.351562.402344-4.757812-.265625-6.5625-1.820313-1.917969-1.621093-3.023438-4.003906-3.023438-6.515625v-73.917968c.003907-.105469.0625-.195313.0625-.304688l-.011718-4.042969c.21875-10.050781 6.4375-18.996093 15.78125-22.707031l46.132812-18.453125.207032-.085937 5.992187-2.394532c4.199219-1.726562 8.921875-1.65625 13.066406.195313l82.882813 51.410156c4.664062 2.328125 9.800781 3.542969 15.011718 3.550781h97.917969zm0 0"/></svg>