<svg height="512pt" viewBox="0 -51 512 512" width="512pt" xmlns="http://www.w3.org/2000/svg"><path d="m477.867188 0h-443.734376c-18.851562 0-34.132812 15.28125-34.132812 34.132812v102.402344c0 18.847656 15.28125 34.132813 34.132812 34.132813h238.933594v221.867187c0 9.425782 7.640625 17.066406 17.066406 17.066406h136.535157c9.425781 0 17.066406-7.640624 17.066406-17.066406v-221.867187h34.132813c18.851562 0 34.132812-15.285157 34.132812-34.132813v-102.402344c0-18.851562-15.28125-34.132812-34.132812-34.132812zm-62.234376 45.167969c-2.414062-2.414063-4.777343-4.769531-7.132812-7.074219.691406-1.207031 1.070312-2.570312 1.101562-3.960938v-17.066406h17.066407v44.988282c-2.683594-6.222657-6.414063-11.933594-11.035157-16.886719zm-23.097656-28.101563v6.417969c-2.773437-2.277344-5.625-4.402344-8.535156-6.417969zm-110.933594 0h42.664063c39.136719 0 54.246094 15.121094 79.300781 40.167969 13.167969 13.164063 23.101563 58.265625 23.101563 104.898437v179.199219h-136.535157v-17.066406h51.199219c4.714844 0 8.535157-3.820313 8.535157-8.53125 0-4.714844-3.820313-8.535156-8.535157-8.535156h-51.199219v-17.066407h17.066407c4.714843 0 8.535156-3.820312 8.535156-8.53125 0-4.714843-3.820313-8.535156-8.535156-8.535156h-17.066407v-17.066406h51.199219c4.714844 0 8.535157-3.820312 8.535157-8.535156 0-4.710938-3.820313-8.53125-8.535157-8.53125h-51.199219v-17.066406h17.066407c4.714843 0 8.535156-3.820313 8.535156-8.535157 0-4.710937-3.820313-8.53125-8.535156-8.53125h-17.066407v-17.066406h51.199219c4.714844 0 8.535157-3.820313 8.535157-8.535156 0-4.710938-3.820313-8.53125-8.535157-8.53125h-51.199219v-8.535157c0-2.882812-.28125-5.691406-.433593-8.53125h17.5c4.714843 0 8.535156-3.820312 8.535156-8.535156 0-4.710937-3.820313-8.53125-8.535156-8.53125h-19.285157c-.914062-5.753906-2.136718-11.449218-3.667968-17.070312h57.085937c4.714844 0 8.535157-3.820313 8.535157-8.53125 0-4.714844-3.820313-8.535156-8.535157-8.535156h-62.746093c-2.28125-5.835938-4.902344-11.535157-7.847657-17.066407h10.863281c4.710938 0 8.53125-3.820312 8.53125-8.53125 0-4.714843-3.820312-8.535156-8.53125-8.535156h-21.652343c-4.285157-6-8.976563-11.699219-14.035157-17.066406h27.152344c4.714844 0 8.535156-3.820313 8.535156-8.53125 0-4.714844-3.820312-8.535157-8.535156-8.535157h-45.917968c-8.472657-6.574218-17.574219-12.292968-27.179688-17.066406zm-247.46875 136.535156c-9.425781 0-17.066406-7.640624-17.066406-17.066406v-102.402344c0-9.425781 7.640625-17.066406 17.066406-17.066406v51.199219c0 4.714844 3.820313 8.535156 8.535157 8.535156 4.710937 0 8.53125-3.820312 8.53125-8.535156v-51.199219h17.066406v17.066406c0 4.714844 3.820313 8.535157 8.535156 8.535157 4.710938 0 8.53125-3.820313 8.53125-8.535157v-17.066406h17.066407v51.199219c0 4.714844 3.820312 8.535156 8.535156 8.535156 4.710937 0 8.53125-3.820312 8.53125-8.535156v-51.199219h8.535156c2.875 0 5.691406.246094 8.535156.417969v16.648437c0 4.714844 3.820313 8.535157 8.53125 8.535157 4.714844 0 8.535156-3.820313 8.535156-8.535157v-14.703124c5.765626 1.015624 11.464844 2.378906 17.066407 4.089843v44.746094c0 4.714844 3.820312 8.535156 8.53125 8.535156 4.714843 0 8.535156-3.820312 8.535156-8.535156v-38.152344c49.066406 22.199219 81.816406 69.730469 85.085937 123.488281zm256 238.933594v-34.136718h136.535157v34.136718zm204.800782-256c0 9.425782-7.640625 17.066406-17.066406 17.066406h-34.246094c-.324219-26.210937-4.195313-52.253906-11.5-77.425781.976562.402344 2.023437.613281 3.078125.625 4.714843 0 8.535156-3.820312 8.535156-8.535156v-51.199219h17.066406v17.066406c0 4.714844 3.820313 8.535157 8.53125 8.535157 4.714844 0 8.535157-3.820313 8.535157-8.535157v-17.066406c9.425781 0 17.066406 7.640625 17.066406 17.066406zm0 0"/></svg>