<svg height="512pt" viewBox="0 -113 512 512" width="512pt" xmlns="http://www.w3.org/2000/svg"><path d="m248.035156 158.375h15.929688c3.941406 0 7.144531 3.140625 7.144531 7.003906 0 3.859375-3.207031 7-7.144531 7h-31.253906c-8.285157 0-15 6.71875-15 15 0 8.285156 6.714843 15 15 15h8.289062v3.519532c0 8.28125 6.714844 15 15 15s15-6.71875 15-15v-4.191407c17.128906-3.285156 30.109375-18.324219 30.109375-36.328125 0-20.40625-16.664063-37.003906-37.144531-37.003906h-15.929688c-3.9375 0-7.144531-3.144531-7.144531-7.003906s3.207031-7.003906 7.144531-7.003906h26.949219c8.285156 0 15-6.714844 15-15 0-8.28125-6.714844-15-15-15h-3.984375v-3.515626c0-8.285156-6.714844-15-15-15s-15 6.714844-15 15v4.191407c-17.128906 3.285156-30.109375 18.320312-30.109375 36.328125 0 20.402344 16.664063 37.003906 37.144531 37.003906zm0 0"/><path d="m497 0h-482c-8.285156 0-15 6.714844-15 15v256.746094c0 8.285156 6.714844 15 15 15h482c8.285156 0 15-6.714844 15-15v-256.746094c0-8.285156-6.714844-15-15-15zm-467 30h153.164062c-37.578124 23.933594-62.535156 65.8125-62.535156 113.375s24.957032 89.4375 62.535156 113.371094h-153.164062zm226 8.820312c58.101562 0 105.371094 46.902344 105.371094 104.554688 0 57.648438-47.269532 104.550781-105.371094 104.550781s-105.371094-46.902343-105.371094-104.550781c0-57.652344 47.269532-104.554688 105.371094-104.554688zm226 217.925782h-153.164062c37.578124-23.933594 62.535156-65.808594 62.535156-113.371094s-24.957032-89.441406-62.535156-113.375h153.164062zm0 0"/></svg>