<svg id="icons" enable-background="new 0 0 64 64" height="512" viewBox="0 0 64 64" width="512" xmlns="http://www.w3.org/2000/svg"><path d="m56 42.496c-.463 0-.918.053-1.367.131l-1.045-1.957 7.051-15.174h.857c1.377 0 2.498-1.121 2.498-2.498s-1.121-2.498-2.498-2.498h-1.129l-17.732-14.774c-.025-.021-.058-.027-.084-.046-.063-.041-.123-.076-.191-.103-.057-.022-.111-.038-.171-.05-.064-.013-.126-.02-.191-.02s-.127.007-.191.02c-.06.012-.114.027-.171.05-.068.026-.129.062-.191.103-.026.019-.059.024-.084.046l-16.591 13.822c-.895-4.028-4.49-7.052-8.784-7.052-.003 0-.007.002-.01.002h-13.349c-.037-.004-.068-.021-.106-.021-1.39 0-2.521 1.13-2.521 2.521 0 1.39 1.131 2.52 2.521 2.52.034 0 .063-.017.097-.02h13.385.001c2.196.01 3.979 1.795 3.985 3.992 0 .004-.002.006-.002.01v30.506c0 .14.013.276.034.409.216 3.421 3.049 6.091 6.48 6.091 2.313 0 4.47-1.244 5.62-3.233.012-.02.024-.042.036-.065.005-.01.011-.02.016-.029v.001l7.585-14.271 9.393 2.064 1.067 1.999c-1.417 1.481-2.218 3.453-2.218 5.524 0 4.411 3.589 8 8 8s8-3.589 8-8-3.589-8-8-8zm-4.576.489c.316-.11.615-.269.885-.467l4.133 7.744c.085.158.06.306.037.379-.039.128-.125.233-.241.295-.203.111-.514.102-.679-.204zm.199-2.832c-.021.047-.04.096-.054.146-.16.562-.806.96-1.342.863l-24.09-5.292c-.612-.112-1.148-.754-1.148-1.374v-9h33.443zm9.873-17.653c.274 0 .498.224.498.498s-.224.498-.498.498h-1.459c-.002 0-.004 0-.006 0h-35.042v-.996zm-36.51 15.073c.242.113.492.209.757.257l8.946 1.965-6.891 12.962c-.269.462-.766.749-1.298.749-.827 0-1.5-.673-1.5-1.5 0-.066-.005-.131-.015-.206v-14.227zm1.766-17.073 15.245-12.703 15.245 12.703zm-24.253-5.002c-.014 0-.024.007-.038.008-.258-.031-.461-.242-.461-.508 0-.265.201-.476.457-.509.015.001.027.009.042.009h7.498v1zm27.934 38.693c-.004.007-.009.014-.013.021-.016.025-.031.056-.046.086-.808 1.363-2.287 2.208-3.873 2.208-2.39 0-4.36-1.872-4.486-4.262-.003-.048-.02-.191-.028-.238v-30.491c0-.005.003-.01.003-.015 0-3.311-2.693-6.004-6.004-6.004-.003 0-.007.002-.01.002h-3.979v-1h4.005c.002 0 .003-.001.004-.001 3.854.012 6.983 3.147 6.983 7.003v12.981c0 .005-.003.01-.003.015v17.365c0 .033.012.111.015.145 0 1.93 1.57 3.5 3.5 3.5 1.241 0 2.401-.668 3.045-1.776l7.171-13.488 1.013.222zm25.567 2.305c-3.309 0-6-2.691-6-6 0-1.326.438-2.598 1.227-3.633l2.567 4.811c.435.815 1.28 1.322 2.207 1.322.407 0 .813-.102 1.176-.294.59-.314 1.021-.84 1.216-1.478.194-.64.128-1.316-.188-1.904l-2.562-4.8c.119-.007.237-.024.356-.024 3.309 0 6 2.691 6 6s-2.69 6-5.999 6z"/></svg>